<svg xmlns="http://www.w3.org/2000/svg" viewBox="0 -0.5 256 256" shape-rendering="crispEdges">
  <path stroke="#ffffa7" d="M0 0h3M0 1h3M0 2h3M0 3h6M0 4h6M0 5h11M0 6h11M0 7h11M0 8h11M0 9h11M0 10h16M0 11h16M0 12h16M0 13h16M0 14h11m1 0h4M0 15h16m0 1h6m-6 1h6m-6 1h6m-6 1h6m-6 1h6m-6 1h11m-11 1h11m-11 1h11m-11 1h11m-11 1h11m-11 1h16m-16 1h16m-16 1h6m1 0h9m-16 1h16m-16 1h16m-16 1h16m0 1h6m-6 1h6m-6 1h6m-6 1h6m-6 1h6m-6 1h6m-6 1h6m-6 1h4m1 0h1m-6 1h6m-6 1h6m-6 1h6m-6 1h6m-6 1h6m-6 1h6m-6 1h6m-6 1h6m-6 1h6m-6 1h6m-6 1h6m-6 1h6m-6 1h6m-6 1h6m-6 1h6m-6 1h6m-6 1h6m-6 1h5m-5 1h6m-6 1h6m-6 1h6m-6 1h6m-6 1h6m-6 1h6m-6 1h6m-6 1h6m-6 1h6m-6 1h6m-6 1h6m-6 1h6m-6 1h6m-6 1h6m-6 1h6m-6 1h6m-6 1h6m-6 1h6m-6 1h6m-6 1h6m-6 1h6m-6 1h6m-22 1h16m-16 1h16m-16 1h16m-16 1h16m-16 1h16m-16 1h16m-16 1h11m-11 1h11m-11 1h11m-11 1h11m-11 1h11m-11 1h6m-6 1h6m-6 1h6m-6 1h6m-6 1h6M0 96h16M0 97h16M0 98h16M0 99h16m-16 1h16m-16 1h16m-16 1h11m-11 1h11m-11 1h11m-11 1h11m-11 1h11m-11 1h6m-6 1h6m-6 1h3m-3 1h3m-3 1h3"/>
  <path stroke="#5d4c78" d="M3 0h72M3 1h17m20 0h35M3 2h14m1 0h2m20 0h35M6 3h14m20 0h35M6 4h14m20 0h35M11 5h9m20 0h35M11 6h9m20 0h35M11 7h9m20 0h6m5 0h24M11 8h5m1 0h3m20 0h6m5 0h24M11 9h9m20 0h4m1 0h1m5 0h24m-59 1h4m20 0h6m5 0h24m-59 1h14m10 0h6m5 0h24m-59 1h8m1 0h5m10 0h1m5 0h5m5 0h19m-59 1h14m10 0h1m5 0h5m5 0h19m-59 1h14m10 0h1m5 0h5m5 0h19m-59 1h14m10 0h1m5 0h5m5 0h19m-53 1h8m10 0h1m5 0h5m5 0h19m-53 1h8m10 0h6m5 0h24m-53 1h8m10 0h6m5 0h24m-53 1h8m10 0h6m5 0h24m-53 1h19m1 0h4m5 0h24m-48 1h19m5 0h24m-48 1h48m-48 1h48m-48 1h22m1 0h25m-48 1h18m10 0h20m-43 1h13m10 0h20m-43 1h13m10 0h20m-43 1h13m10 0h20m-43 1h13m10 0h20m-43 1h13m10 0h20m-43 1h13m10 0h20m-37 1h7m10 0h20m-37 1h7m10 0h20m-37 1h7m10 0h20m-37 1h7m10 0h20m-37 1h7m10 0h4m1 0h15m-37 1h7m10 0h20m-37 1h7m10 0h20m-37 1h7m10 0h20m-37 1h7m10 0h20m-37 1h7m10 0h20m-37 1h1m1 0h5m10 0h20m-37 1h7m10 0h20m-37 1h7m10 0h20m-37 1h7m10 0h20m-37 1h7m10 0h2m1 0h17m-37 1h37m-37 1h37m-37 1h37m-37 1h37m-37 1h19m5 0h13m-37 1h19m5 0h13m-37 1h19m5 0h13m-36 1h18m5 0h13m-37 1h19m5 0h13m-37 1h7m1 0h29m-37 1h37m-37 1h37m-37 1h32m1 0h4m-37 1h37m-37 1h37m-37 1h37m-37 1h37m-37 1h37m-37 1h37m-37 1h37m-37 1h37m-37 1h37m-37 1h37m-37 1h9m-9 1h9m-9 1h9m-9 1h9m-9 1h9m-9 1h9m-9 1h9m-9 1h9m-9 1h9m-9 1h9m-15 1h28m-28 1h25m1 0h2m-28 1h28m-28 1h28m-28 1h14m1 0h13m-28 1h28m-33 1h33m-33 1h33m-33 1h33m-33 1h27m1 0h5m-33 1h23m-28 1h28m-28 1h5m1 0h22m-28 1h28m-28 1h23m1 0h4m-28 1h28m-34 1h34m-34 1h34m-34 1h34m-34 1h34m-34 1h34m-34 1h34m-39 1h14m5 0h20m-39 1h14m5 0h20m-39 1h14m5 0h20m-39 1h14m19 0h6m-39 1h14m19 0h6m-44 1h14m5 0h1m18 0h6m-44 1h14m5 0h1m18 0h6m-47 1h17m5 0h1m18 0h6m-47 1h17m5 0h1m18 0h6m-47 1h17m5 0h1m18 0h6m-50 1h26m18 0h6m-30 1h5m19 0h6m-30 1h2m1 0h2m19 0h6m-30 1h5m5 0h20m-30 1h5m5 0h20m-30 1h5m5 0h20m-30 1h30m-30 1h30m-30 1h30m-30 1h30m-30 1h30"/>
  <path stroke="#000" d="M75 0h5m23 0h5m68 0h5M75 1h5m23 0h5m68 0h5M75 2h5m23 0h5m68 0h5M75 3h5m23 0h5m68 0h5M75 4h5m23 0h5m68 0h5M75 5h5m23 0h5m68 0h5M75 6h5m23 0h5m68 0h5M75 7h5m23 0h5m68 0h5M75 8h5m23 0h5m68 0h5M75 9h5m23 0h5m68 0h5M75 10h5m23 0h5m68 0h5M75 11h5m23 0h5m68 0h5M75 12h5m23 0h5m68 0h5M75 13h5m23 0h5m68 0h5M75 14h5m23 0h5m68 0h5M75 15h5m23 0h5m68 0h5M0 16h16m59 0h5m23 0h5m68 0h5M0 17h16m59 0h5m23 0h5m68 0h5M0 18h16m59 0h5m23 0h5m68 0h5M0 19h16m59 0h5m23 0h5m68 0h5M0 20h16m59 0h5m23 0h5m68 0h5M11 21h5m59 0h5m23 0h5m68 0h5M11 22h5m59 0h2m1 0h2m23 0h5m68 0h5M11 23h5m59 0h5m23 0h5m68 0h5M11 24h5m59 0h5m23 0h5m68 0h5M11 25h5m59 0h5m23 0h5m68 0h5M11 26h5m59 0h5m23 0h5m68 0h5M11 27h5m59 0h5m23 0h5m68 0h5M11 28h5m59 0h5m23 0h5m68 0h5M11 29h5m59 0h5m23 0h4m69 0h5M11 30h5m59 0h5m23 0h5m68 0h5M11 31h5m59 0h5m23 0h5m68 0h5M11 32h21m43 0h5m23 0h5m68 0h5M11 33h10m1 0h10m43 0h5m23 0h5m68 0h5M11 34h21m43 0h5m23 0h5m68 0h5M11 35h21m43 0h5m23 0h5m68 0h5M11 36h21m43 0h5m23 0h5m68 0h5M27 37h5m43 0h5m23 0h4m69 0h5M27 38h5m43 0h5m23 0h5m68 0h5M27 39h5m43 0h5m23 0h5m68 0h5M27 40h5m43 0h5m23 0h5m68 0h5M27 41h5m43 0h5m23 0h5m68 0h5M27 42h5m43 0h5m23 0h5m68 0h5M27 43h5m43 0h5m23 0h5m68 0h5M27 44h5m43 0h5m23 0h5m68 0h5M27 45h5m43 0h5m23 0h5m68 0h5M27 46h5m43 0h5m23 0h5m68 0h5M27 47h5m43 0h5m23 0h5m68 0h5M27 48h5m43 0h5m23 0h5m68 0h5M27 49h5m43 0h5m23 0h5m68 0h5M27 50h5m43 0h5m23 0h5m68 0h5M27 51h5m43 0h5m23 0h5m68 0h5M27 52h5m43 0h5m23 0h5m68 0h5M27 53h5m43 0h5m23 0h5m68 0h5M27 54h5m43 0h5m23 0h5m68 0h5M27 55h5m43 0h5m23 0h5m68 0h5M27 56h5m43 0h5m23 0h5m68 0h5M27 57h5m43 0h5m23 0h5m68 0h2m1 0h2M27 58h5m43 0h5m23 0h5m68 0h5M27 59h5m43 0h5m23 0h5m68 0h5M27 60h5m43 0h5m23 0h5m68 0h5M27 61h5m43 0h5m23 0h5m68 0h5M27 62h5m43 0h5m23 0h5m68 0h5M27 63h5m43 0h5m23 0h5m68 0h5M27 64h5m43 0h5m23 0h5m68 0h5M27 65h5m43 0h5m23 0h5m68 0h5M27 66h5m43 0h5m23 0h5m68 0h5M27 67h5m43 0h5m23 0h5m68 0h5M27 68h5m43 0h5m23 0h5m68 0h5M27 69h5m43 0h5m23 0h5m68 0h5M27 70h5m43 0h5m23 0h5m68 0h5M27 71h5m43 0h5m23 0h5m68 0h5M27 72h5m43 0h5m23 0h5m68 0h5M27 73h5m43 0h5m23 0h5m68 0h5M27 74h5m43 0h5m23 0h5m68 0h5M11 75h18m1 0h2m43 0h5m23 0h5m68 0h5M11 76h21m43 0h5m23 0h5m68 0h5M11 77h21m43 0h5m23 0h5m68 0h5M11 78h21m43 0h5m23 0h5m68 0h5M11 79h19m1 0h1m43 0h5m23 0h5m68 0h5M11 80h5m44 0h3m1 0h101m1 0h53M11 81h5m44 0h160M11 82h5m44 0h65m1 0h35m1 0h58M11 83h5m44 0h139m1 0h20M11 84h5m44 0h99m1 0h60M11 85h5m44 0h160M11 86h5m44 0h128m1 0h31M11 87h5m44 0h160M11 88h5m44 0h160M11 89h5m44 0h160M11 90h5m34 0h10m160 0h10M0 91h16m34 0h10m160 0h10M0 92h16m34 0h10m160 0h10M0 93h16m34 0h10m160 0h10M0 94h16m34 0h10m160 0h10M0 95h16m34 0h10m160 0h10M50 96h10m160 0h10M50 97h10m160 0h10M50 98h10m160 0h10M50 99h10m160 0h10m-180 1h10m160 0h10m-180 1h10m160 0h10m-180 1h10m160 0h10m-180 1h10m160 0h10m-180 1h10m160 0h10m-180 1h10m160 0h10m-180 1h10m160 0h10m-180 1h10m160 0h10m-180 1h10m160 0h10m-180 1h10m160 0h10m-180 1h10m160 0h10m-180 1h10m160 0h10m-180 1h10m160 0h10m-180 1h10m160 0h10m-180 1h10m160 0h10m-180 1h10m160 0h10m-180 1h10m160 0h10m-180 1h10m160 0h10m-180 1h10m160 0h10m-180 1h10m160 0h10m-180 1h10m160 0h10m-180 1h10m24 0h10m64 0h11m51 0h10m-180 1h10m24 0h10m64 0h11m51 0h10M0 123h60m24 0h10m64 0h11m51 0h1m1 0h8M0 124h60m24 0h10m64 0h11m51 0h10M0 125h3m1 0h56m24 0h10m64 0h11m51 0h10M0 126h60m24 0h5m5 0h5m55 0h5m5 0h5m51 0h10M0 127h60m24 0h5m5 0h5m55 0h5m5 0h5m51 0h10m-180 1h10m24 0h5m5 0h5m55 0h5m5 0h5m51 0h10m-180 1h10m24 0h5m5 0h5m55 0h5m5 0h5m51 0h10m-180 1h10m24 0h5m5 0h5m55 0h5m5 0h5m51 0h10m-180 1h10m24 0h15m55 0h15m51 0h10m-180 1h10m24 0h3m1 0h11m55 0h15m51 0h10m-180 1h10m24 0h15m55 0h15m51 0h10m-180 1h10m24 0h15m55 0h15m51 0h10m-180 1h10m24 0h15m55 0h15m51 0h10m-180 1h10m160 0h10m-180 1h10m160 0h10m-180 1h10m160 0h10m-180 1h10m160 0h10m-180 1h10m160 0h10m-180 1h10m160 0h10m-180 1h10m160 0h10m-180 1h10m160 0h10m-180 1h10m160 0h10m-180 1h10m160 0h10m-180 1h10m160 0h10m-180 1h10m160 0h10m-180 1h4m1 0h5m160 0h10m-180 1h10m160 0h10m-180 1h10m160 0h10m-180 1h10m160 0h10m-180 1h10m160 0h10m-180 1h10m160 0h10m-180 1h10m160 0h10m-180 1h10m160 0h10m-180 1h10m160 0h10m-180 1h10m160 0h10m-180 1h10m160 0h10m-180 1h10m160 0h10m-180 1h10m160 0h10m-180 1h10m160 0h10m-180 1h10m160 0h10m-180 1h10m160 0h10m-180 1h10m160 0h10m-180 1h10m160 0h10m-180 1h10m160 0h10m-180 1h10m160 0h10m-180 1h10m160 0h10m-180 1h10m160 0h10m-180 1h10m160 0h10m-180 1h10m160 0h10m-180 1h10m160 0h10m-180 1h10m160 0h10m-180 1h10m160 0h10m-180 1h10m160 0h10m-180 1h10m160 0h10m-180 1h10m160 0h10m-180 1h10m160 0h10m-180 1h10m160 0h10m-170 1h45m40 0h70m1 0h4m-160 1h45m40 0h21m1 0h53m-160 1h45m40 0h75m-160 1h45m40 0h48m1 0h26m-160 1h45m40 0h75m-160 1h19m1 0h25m40 0h75m-160 1h19m1 0h25m40 0h75m-160 1h45m40 0h75m-160 1h18m1 0h26m40 0h75m-160 1h45m40 0h75m-152 1h10m127 0h10m-147 1h10m127 0h10m-147 1h10m127 0h10m-147 1h10m127 0h10m-147 1h10m127 0h10m-147 1h10m127 0h10m-147 1h10m127 0h4m1 0h5m-147 1h10m127 0h10m-147 1h10m127 0h10m-147 1h10m127 0h10m-147 1h10m127 0h10m-147 1h10m127 0h10m-147 1h10m127 0h10m-147 1h10m127 0h4m1 0h5m-147 1h10m127 0h10m-147 1h10m127 0h10m-147 1h10m127 0h10m-147 1h10m127 0h10m-147 1h10m127 0h10m-147 1h10m127 0h10m-147 1h10m127 0h10m-147 1h10m127 0h10m-147 1h10m127 0h10m-147 1h10m127 0h10m-147 1h10m127 0h10m-147 1h10m127 0h10m-147 1h10m127 0h10m-147 1h10m127 0h10m-147 1h10m127 0h10m-147 1h10m127 0h10m-147 1h4m1 0h5m127 0h10m-147 1h10m127 0h10m-147 1h10m127 0h10m-147 1h10m127 0h10m-147 1h10m127 0h10m-147 1h10m127 0h10m-147 1h10m127 0h10m-147 1h10m127 0h10m-147 1h10m127 0h10m-147 1h10m127 0h10m-147 1h10m127 0h10m-147 1h10m127 0h10m-147 1h10m127 0h10m-147 1h10m127 0h10m-147 1h10m119 0h18m-147 1h20m109 0h6m1 0h11m-147 1h20m109 0h18m-147 1h20m109 0h18m-137 1h10m109 0h10m-129 1h10m109 0h2m1 0h7m-129 1h10m109 0h10m-129 1h10m109 0h3m1 0h6m-129 1h10m109 0h10m-129 1h10m109 0h10m-129 1h10m109 0h10m-129 1h10m109 0h10m-129 1h10m109 0h10m-129 1h10m109 0h10m-129 1h10m109 0h10m-129 1h10m109 0h10m-129 1h10m109 0h10m-129 1h10m109 0h10m-129 1h10m109 0h10m-129 1h10m109 0h10m-129 1h10m109 0h10m-129 1h10m109 0h10"/>
  <path stroke="#58455b" d="M80 0h23m78 0h75M80 1h23m78 0h75M80 2h23m78 0h75M80 3h23m78 0h75M80 4h23m78 0h75M80 5h23m78 0h75M80 6h5m5 0h13m78 0h75M80 7h5m5 0h13m78 0h59m1 0h15M80 8h5m5 0h13m78 0h75M80 9h5m5 0h13m78 0h75M80 10h4m6 0h13m78 0h75M80 11h10m5 0h8m78 0h75M80 12h10m5 0h8m78 0h75M80 13h10m5 0h8m78 0h75M80 14h10m5 0h8m78 0h75M80 15h10m5 0h8m78 0h43m1 0h31M80 16h23m78 0h75M80 17h5m5 0h2m1 0h10m78 0h75M80 18h5m5 0h13m78 0h75M80 19h5m5 0h13m79 0h14m45 0h15M80 20h5m5 0h13m78 0h15m45 0h15M80 21h5m10 0h8m78 0h15m45 0h15M80 22h10m5 0h8m78 0h15m45 0h15M80 23h10m5 0h8m78 0h15m45 0h15M80 24h10m5 0h8m78 0h26m1 0h48M80 25h10m5 0h8m78 0h45m1 0h15m1 0h13M80 26h10m5 0h8m78 0h75M81 27h9m5 0h8m78 0h75M80 28h10m5 0h8m78 0h36m1 0h38M80 29h10m5 0h8m78 0h75M80 30h10m5 0h8m78 0h32m2 0h2m2 0h10m2 0h21m1 0h3M80 31h10m5 0h8m78 0h7m9 0h7m2 0h7m2 0h2m2 0h10m2 0h25M80 32h10m5 0h8m78 0h6m11 0h6m3 0h6m2 0h2m2 0h10m2 0h25M80 33h10m5 0h5m1 0h2m78 0h6m2 0h7m2 0h6m4 0h5m2 0h2m2 0h10m2 0h25M80 34h10m5 0h8m78 0h6m2 0h15m5 0h4m2 0h2m2 0h10m2 0h25M80 35h6m5 0h12m78 0h6m2 0h15m2 0h1m3 0h3m2 0h2m2 0h10m2 0h25M80 36h6m5 0h12m78 0h6m2 0h15m2 0h2m3 0h2m2 0h2m2 0h10m2 0h25M80 37h6m5 0h12m78 0h6m2 0h15m2 0h3m2 0h2m2 0h2m2 0h10m2 0h25M80 38h6m5 0h12m78 0h6m2 0h15m2 0h3m3 0h1m2 0h2m2 0h10m2 0h25M80 39h6m5 0h12m78 0h6m2 0h15m2 0h2m1 0h1m2 0h1m2 0h2m2 0h10m2 0h25M80 40h2m1 0h2m5 0h13m78 0h6m2 0h3m7 0h5m2 0h4m5 0h2m2 0h10m2 0h25M82 41h3m5 0h13m78 0h6m2 0h3m8 0h4m2 0h5m4 0h2m2 0h10m2 0h25M80 42h5m5 0h13m78 0h6m2 0h9m2 0h4m2 0h6m3 0h2m2 0h10m2 0h25M80 43h5m5 0h13m78 0h6m2 0h9m2 0h4m2 0h6m3 0h2m2 0h10m2 0h25M80 44h5m5 0h13m78 0h6m2 0h9m2 0h4m2 0h6m3 0h2m2 0h10m2 0h25M80 45h5m5 0h13m78 0h6m2 0h9m2 0h4m2 0h7m2 0h2m2 0h9m3 0h25M80 46h5m5 0h13m78 0h6m13 0h4m2 0h7m2 0h2m6 0h4m3 0h26M80 47h5m5 0h13m78 0h7m11 0h19m11 0h27M80 48h5m5 0h9m1 0h3m78 0h41m6 0h28M80 49h5m5 0h13m78 0h75M80 50h5m5 0h13m78 0h75M80 51h11m5 0h7m78 0h16m1 0h58M80 52h11m5 0h7m78 0h75M80 53h11m5 0h7m78 0h75M81 54h10m5 0h7m78 0h52m1 0h22M80 55h11m5 0h7m78 0h75M80 56h23m78 0h75M80 57h23m78 0h75M80 58h23m78 0h75M80 59h3m1 0h19m78 0h75M80 60h23m78 0h75M80 61h23m78 0h75M80 62h23m78 0h75M80 63h23m78 0h75M80 64h23m78 0h73m1 0h1M80 65h23m78 0h75M80 66h23m78 0h20m1 0h54M80 67h23m78 0h75M80 68h23m78 0h47m1 0h27M80 69h23m78 0h75M80 70h23m78 0h75M80 71h23m78 0h75M80 72h23m78 0h75M80 73h23m78 0h58m1 0h4m1 0h11M80 74h23m78 0h34m1 0h40M80 75h23m78 0h75M80 76h23m78 0h75M80 77h23m78 0h75M80 78h23m78 0h31m1 0h43M80 79h23m78 0h75m-36 1h36m-36 1h36m-36 1h36m-36 1h36m-36 1h36m-36 1h36m-36 1h36m-36 1h36m-36 1h36m-36 1h36m-26 1h26m-26 1h26m-26 1h26m-26 1h26m-26 1h26m-26 1h26m-26 1h26m-26 1h26m-26 1h26m-26 1h26m-26 1h26m-26 1h26m-26 1h26m-26 1h26m-26 1h26m-26 1h26m-26 1h26m-26 1h26m-26 1h26m-26 1h26m-26 1h26m-26 1h26m-26 1h26m-26 1h26m-26 1h26m-26 1h26m-26 1h26m-26 1h26m-26 1h26m-26 1h26m-26 1h17m1 0h8m-26 1h26m-26 1h26m-26 1h11m1 0h14m-26 1h26m-26 1h26m-26 1h26m-26 1h26M0 128h50m180 0h26M0 129h50m180 0h26M0 130h4m1 0h45m180 0h26M0 131h25m1 0h24m180 0h26M0 132h48m1 0h1m180 0h26M0 133h14m5 0h31m180 0h26M0 134h14m5 0h14m5 0h12m180 0h26M0 135h5m1 0h8m5 0h14m5 0h12m180 0h26M0 136h14m5 0h14m5 0h12m180 0h26M0 137h14m5 0h5m1 0h8m5 0h12m180 0h26M0 138h14m5 0h14m5 0h12m180 0h26M0 139h14m5 0h14m5 0h12m180 0h26M0 140h14m5 0h14m5 0h12m180 0h11m1 0h14M0 141h14m5 0h14m5 0h12m180 0h26M0 142h14m5 0h14m5 0h12m180 0h26M0 143h14m5 0h14m5 0h12m180 0h26M0 144h14m5 0h14m5 0h12m180 0h26M0 145h14m5 0h14m5 0h12m180 0h26M0 146h14m5 0h14m5 0h12m180 0h26M0 147h14m5 0h14m5 0h12m180 0h2m1 0h23M0 148h14m5 0h14m5 0h12m180 0h26M0 149h11m1 0h2m6 0h13m5 0h12m180 0h26M0 150h14m5 0h14m5 0h12m180 0h26M0 151h14m5 0h14m5 0h12m180 0h26M0 152h14m5 0h14m5 0h12m180 0h26M0 153h14m5 0h14m5 0h12m180 0h26M0 154h14m5 0h14m5 0h11m181 0h26M0 155h14m6 0h13m5 0h2m1 0h9m180 0h26M0 156h14m5 0h14m5 0h12m180 0h26M0 157h14m5 0h14m5 0h12m180 0h26M0 158h14m5 0h14m5 0h12m180 0h26M0 159h14m5 0h14m5 0h9m1 0h2m180 0h26M0 160h14m5 0h14m5 0h12m180 0h26M0 161h14m5 0h14m5 0h12m180 0h26M0 162h14m5 0h14m5 0h12m180 0h26M0 163h14m5 0h6m1 0h7m5 0h12m180 0h26M0 164h14m5 0h14m5 0h12m180 0h17m1 0h2m1 0h5M0 165h14m5 0h14m5 0h12m180 0h26M0 166h14m5 0h14m5 0h12m180 0h26M0 167h14m5 0h14m5 0h12m180 0h26M0 168h14m5 0h12m1 0h1m5 0h12m180 0h26M0 169h14m5 0h14m5 0h12m180 0h26M0 170h14m5 0h14m5 0h12m180 0h26M0 171h14m5 0h14m5 0h12m180 0h26M0 172h14m5 0h14m5 0h12m180 0h26M0 173h14m5 0h14m5 0h12m180 0h26M0 174h14m5 0h14m5 0h12m180 0h26M0 175h14m5 0h3m1 0h10m5 0h9m1 0h2m180 0h26M0 176h14m5 0h14m5 0h12m180 0h26M0 177h14m5 0h14m5 0h12m180 0h26M0 178h14m5 0h14m5 0h12m180 0h26M0 179h14m5 0h14m5 0h12m180 0h26M0 180h14m5 0h14m5 0h18m1 0h3m160 0h36M0 181h14m5 0h14m5 0h22m160 0h6m1 0h29M0 182h14m5 0h14m5 0h22m160 0h36M0 183h14m5 0h14m5 0h22m160 0h36M0 184h14m5 0h14m5 0h22m160 0h36M0 185h14m5 0h14m5 0h22m160 0h36M0 186h14m5 0h14m5 0h22m160 0h36M0 187h14m5 0h14m5 0h22m160 0h36M0 188h14m5 0h14m5 0h22m160 0h36M0 189h14m5 0h14m5 0h22m160 0h36M0 190h14m5 0h14m5 0h30m147 0h41M0 191h14m5 0h9m1 0h4m5 0h30m147 0h41M0 192h14m5 0h14m5 0h30m147 0h41M0 193h2m1 0h11m5 0h14m5 0h30m147 0h41M0 194h14m5 0h14m5 0h30m147 0h41M0 195h14m5 0h14m5 0h30m147 0h41M0 196h14m5 0h14m5 0h30m147 0h41M0 197h10m1 0h3m5 0h14m5 0h30m147 0h41M0 198h14m5 0h14m5 0h30m147 0h41M0 199h14m5 0h14m5 0h16m1 0h13m147 0h41M0 200h14m5 0h14m5 0h30m147 0h41M0 201h33m5 0h30m147 0h41M0 202h33m5 0h30m147 0h41M0 203h33m5 0h30m147 0h31m1 0h9M0 204h33m5 0h30m147 0h41M0 205h33m5 0h30m147 0h41M0 206h33m5 0h30m147 0h41M0 207h33m5 0h30m147 0h41M0 208h33m5 0h16m1 0h13m147 0h41M0 209h33m6 0h29m147 0h41M0 210h33m6 0h29m147 0h41M0 211h33m6 0h29m147 0h41M0 212h33m6 0h29m147 0h5m1 0h35M0 213h34m5 0h29m147 0h41M0 214h34m5 0h29m147 0h41M0 215h34m5 0h2m1 0h26m147 0h41M0 216h34m5 0h29m147 0h41M0 217h34m5 0h28m148 0h41M0 218h28m1 0h5m5 0h29m147 0h41M0 219h68m147 0h41M0 220h68m147 0h41M0 221h68m147 0h41M0 222h68m147 0h41M0 223h68m147 0h41M0 224h68m147 0h28m1 0h12M0 225h68m147 0h41M0 226h24m2 0h6m10 0h26m147 0h2m1 0h9m1 0h28M0 227h6m2 0h16m2 0h4m12 0h26m147 0h41M0 228h6m2 0h16m2 0h3m4 0h11m1 0h23m147 0h41M0 229h6m3 0h15m2 0h3m2 0h37m147 0h41M0 230h7m2 0h14m3 0h3m2 0h37m147 0h41M0 231h7m2 0h14m2 0h4m2 0h37m147 0h41M0 232h7m3 0h13m2 0h2m1 0h1m2 0h37m147 0h41M0 233h8m2 0h13m2 0h4m2 0h37m147 0h41M0 234h8m2 0h5m2 0h6m2 0h4m2 0h37m147 0h41M0 235h8m2 0h5m3 0h4m3 0h4m2 0h37m147 0h41M0 236h8m3 0h3m5 0h3m2 0h5m2 0h37m147 0h41M0 237h9m2 0h2m3 0h1m2 0h3m3 0h4m2 0h37m147 0h41M0 238h9m2 0h2m2 0h2m3 0h1m3 0h5m2 0h47m129 0h49M0 239h9m6 0h3m2 0h1m2 0h6m3 0h46m129 0h49M0 240h10m4 0h4m5 0h7m3 0h45m129 0h49M0 241h10m4 0h5m4 0h8m5 0h23m1 0h18m129 0h49M0 242h11m2 0h7m2 0h10m13 0h33m129 0h46m1 0h2M0 243h35m10 0h33m129 0h49M0 244h13m1 0h64m129 0h49M0 245h78m129 0h49M0 246h78m129 0h49M0 247h78m129 0h20m1 0h28M0 248h78m129 0h21m1 0h27M0 249h78m129 0h49M0 250h6m1 0h71m129 0h49M0 251h78m129 0h49M0 252h78m129 0h49M0 253h78m129 0h49M0 254h78m129 0h49M0 255h78m129 0h49"/>
  <path stroke="#fee451" d="M108 0h52m-52 1h52m-52 1h52m-52 1h52m-52 1h52m-52 1h52m-52 1h52m-52 1h52m-52 1h52m-52 1h8m25 0h19m-52 1h8m25 0h19m-52 1h8m25 0h19m-52 1h8m25 0h19m-52 1h8m25 0h19m-52 1h8m25 0h19m-52 1h8m25 0h19m-52 1h8m25 0h19m-52 1h8m25 0h19m-52 1h8m25 0h19m-52 1h8m25 0h5m1 0h13m-52 1h8m25 0h19m-52 1h8m25 0h19m-52 1h8m25 0h19m-52 1h8m25 0h19m-52 1h8m25 0h19m-52 1h8m25 0h19m-52 1h8m25 0h19m-52 1h8m25 0h19m-52 1h8m25 0h19m-52 1h8m25 0h19m-52 1h8m25 0h19m-52 1h8m25 0h19m-52 1h8m25 0h19m-52 1h8m25 0h19m-52 1h52m-52 1h52m-52 1h52m-52 1h34m1 0h17m-52 1h32m1 0h19m-52 1h52m-52 1h1m1 0h50m-52 1h52m-52 1h52m-52 1h52m-52 1h9m1 0h37m1 0h4m-52 1h49m1 0h2m-52 1h52m-52 1h52m-52 1h52m-52 1h8m25 0h18m-51 1h8m25 0h19m-52 1h8m25 0h19m-52 1h8m25 0h19m-52 1h8m25 0h19m-52 1h8m25 0h19m-52 1h8m25 0h19m-52 1h8m25 0h19m-52 1h8m25 0h19m-52 1h8m25 0h19m-52 1h8m25 0h19m-52 1h8m25 0h19m-52 1h8m25 0h19m-52 1h8m25 0h19m-52 1h8m25 0h19m-52 1h8m25 0h19m-52 1h8m25 0h19m-52 1h8m25 0h19m-52 1h8m25 0h19m-52 1h8m25 0h19m-52 1h8m25 0h19m-52 1h8m25 0h19m-52 1h8m25 0h19m-52 1h8m25 0h19m-52 1h8m25 0h19m-52 1h25m1 0h3m1 0h22m-52 1h52m-52 1h52m-52 1h6m1 0h22m1 0h22m-52 1h52m-52 1h15m1 0h36m-15 111h6m-6 1h6m-6 1h6m-6 1h6m-6 1h6m-6 1h6m-6 1h6m-6 1h6m-6 1h6m-6 1h6m-41 1h10m21 0h10m-41 1h10m21 0h10m-41 1h10m21 0h10m-41 1h10m21 0h10m-41 1h10m21 0h10m-41 1h10m21 0h10m-41 1h10m21 0h10m-41 1h10m21 0h10m-41 1h10m21 0h10m-41 1h10m21 0h10m-41 1h10m21 0h10m-41 1h10m21 0h10m-41 1h10m21 0h10m-41 1h10m21 0h10m-41 1h10m21 0h10m-41 1h10m21 0h10m-41 1h10m21 0h10m-41 1h10m21 0h10m-41 1h10m21 0h10m-41 1h10m21 0h10m-41 1h10m21 0h10m-41 1h10m21 0h10m-41 1h10m21 0h10m-41 1h10m21 0h1m1 0h8m-41 1h10m21 0h10m-41 1h10m21 0h10m-41 1h8m1 0h1m21 0h10m-41 1h10m21 0h3m1 0h6m-41 1h10m21 0h10m-41 1h10m21 0h10m-41 1h10m21 0h10m-41 1h10m21 0h10m18 0h19m-110 1h23m9 0h10m21 0h4m1 0h5m18 0h19m-110 1h23m9 0h10m21 0h10m18 0h19m-110 1h23m9 0h10m21 0h10m-41 1h10m21 0h10m-41 1h10m21 0h10m-41 1h10m21 0h10m-41 1h10m21 0h10m-41 1h7m1 0h2m21 0h10m-43 1h10m26 0h10m-46 1h5m1 0h4m26 0h10m-46 1h10m26 0h10m-46 1h10m26 0h10m-46 1h10m26 0h10m-46 1h10m26 0h10m-46 1h10m26 0h10m-53 1h17m26 0h19m-62 1h17m26 0h19m-62 1h17m26 0h19m-62 1h10m42 0h10m-62 1h10m42 0h10m-62 1h10m42 0h10m-62 1h10m42 0h10m-62 1h10m42 0h10m-62 1h10m42 0h10"/>
  <path stroke="#fea350" d="M160 0h16m-16 1h16m-16 1h16m-16 1h16m-16 1h16m-16 1h16m-16 1h16m-16 1h16m-16 1h16m-16 1h16m-16 1h16m-16 1h16m-16 1h16m-16 1h8m1 0h7m-16 1h16m-16 1h16m-16 1h16m-16 1h16m-16 1h16m-16 1h16m-16 1h16m-16 1h16m-16 1h16m-16 1h16m-16 1h16m-16 1h16m-16 1h16m-16 1h16m-16 1h16m-16 1h16m-16 1h16m-16 1h16m-16 1h16m-16 1h16m-16 1h16m-16 1h16m-16 1h13m1 0h2m-16 1h16m-16 1h16m-16 1h16m-16 1h16m-16 1h16m-16 1h16m-16 1h16m-16 1h16m-16 1h16m-16 1h16m-16 1h16m-16 1h16m-16 1h16m-16 1h16m-16 1h16m-16 1h16m-16 1h16m-15 1h15m-16 1h16m-16 1h16m-16 1h16m-16 1h16m-16 1h16m-16 1h16m-16 1h16m-16 1h16m-16 1h16m-16 1h16m-16 1h16m-16 1h16m-16 1h16m-16 1h16m-16 1h16m-16 1h16m-16 1h16m-16 1h16m-16 1h16m-16 1h16m-16 1h16m-16 1h16m-16 1h16m-16 1h16m-16 1h16"/>
  <path stroke="#4c3b6f" d="M20 1h20M20 2h20M20 3h20M20 4h14m1 0h5M20 5h20M20 6h20M20 7h20M20 8h20M20 9h20m-20 1h20m-10 1h10m-10 1h10m-10 1h10m-10 1h10m-10 1h10m-10 1h3m1 0h6m-10 1h10m-10 1h10m-10 1h10m5 6h10m-10 1h10m-10 1h10m-10 1h10m-10 1h10m-10 1h10m-10 1h10m-10 1h10m-10 1h10m-10 1h10m-10 1h10m-10 1h10m-10 1h10m-10 1h10m-10 1h10m-10 1h10m-10 1h10m-10 1h10m-10 1h10m-10 1h10m-10 1h10m-10 1h10m-8 24h4m1 0h23m-28 1h28m-28 1h28m-28 1h28m-28 1h28m-28 1h28m-28 1h28m-28 1h28m-28 1h28m-28 1h28m-45 26h14m-14 1h14m-18 1h4m5 0h9m-18 1h4m5 0h9m-18 1h4m5 0h9m-18 1h4m5 0h1m1 0h7m-18 1h4m5 0h9m-18 1h18m-44 1h20m10 0h3m1 0h10m-44 1h20m10 0h14m-44 1h20m-20 1h20m-20 1h20m-20 1h20m-20 1h20m-20 1h20m-20 1h20m-20 1h20"/>
  <path stroke="#5d4c79" d="M17 2h1m20 52h1"/>
  <path stroke="#4d3b6f" d="M34 4h1m1 106h1"/>
  <path stroke="#6a5367" d="M85 6h5m-5 1h5m-5 1h5m-5 1h5m-5 1h5m0 1h5m-5 1h5m-5 1h5m-5 1h5m-5 1h5m-10 2h5m-5 1h5m-5 1h5m106 0h45M85 20h5m106 0h45M85 21h10m101 0h45M90 22h5m101 0h10m1 0h34M90 23h5m101 0h45M90 24h5m-5 1h5m-5 1h5m-5 1h5m-5 1h5m-5 1h5m-5 1h5m118 0h2m2 0h2m10 0h2M90 31h5m93 0h9m7 0h2m7 0h2m2 0h2m10 0h2M90 32h5m92 0h11m6 0h3m6 0h2m2 0h2m10 0h2M90 33h5m92 0h2m7 0h2m6 0h4m5 0h2m2 0h2m10 0h2M90 34h5m92 0h2m15 0h5m4 0h2m2 0h2m10 0h2M86 35h5m96 0h2m15 0h2m1 0h3m3 0h2m2 0h2m10 0h2M86 36h5m96 0h2m15 0h2m2 0h3m2 0h2m2 0h2m10 0h2M86 37h5m96 0h2m15 0h2m3 0h2m2 0h2m2 0h2m10 0h2M86 38h5m96 0h2m15 0h2m3 0h3m1 0h2m2 0h2m10 0h2M86 39h5m96 0h2m15 0h2m4 0h2m1 0h2m2 0h2m10 0h2M85 40h5m97 0h2m3 0h7m5 0h2m4 0h5m2 0h2m10 0h2M85 41h5m97 0h2m3 0h8m4 0h2m5 0h4m2 0h2m10 0h2M85 42h5m97 0h2m9 0h2m4 0h2m6 0h3m2 0h2m10 0h2M85 43h5m97 0h2m9 0h2m4 0h2m6 0h3m2 0h2m10 0h2M85 44h5m97 0h2m9 0h2m4 0h2m6 0h3m2 0h2m10 0h2M85 45h5m97 0h2m9 0h2m4 0h2m7 0h2m2 0h2m9 0h3M85 46h5m97 0h13m4 0h2m7 0h2m2 0h6m4 0h3M85 47h5m98 0h11m20 0h10M85 48h5m132 0h6M85 49h5m-5 1h5m1 1h5m-5 1h5m-5 1h5m-5 1h5m-5 1h5m-82 78h5m-5 1h5m14 0h5m-24 1h5m14 0h5m-24 1h5m14 0h5m-24 1h5m14 0h5m-24 1h5m14 0h5m-24 1h5m14 0h5m-24 1h5m14 0h5m-24 1h5m14 0h5m-24 1h5m14 0h5m-24 1h5m14 0h5m-24 1h5m14 0h5m-24 1h5m14 0h5m-24 1h5m14 0h5m-24 1h5m14 0h5m-24 1h5m14 0h5m-24 1h5m14 0h5m-24 1h5m14 0h5m-24 1h5m14 0h5m-24 1h5m14 0h5m-24 1h5m14 0h5m-24 1h5m14 0h5m-24 1h5m14 0h5m-24 1h5m14 0h5m-24 1h5m14 0h5m-24 1h5m14 0h5m-24 1h5m14 0h5m-24 1h5m14 0h5m-24 1h5m14 0h5m-24 1h5m14 0h5m-24 1h5m14 0h5m-24 1h5m14 0h5m-24 1h5m14 0h5m-24 1h5m14 0h5m-24 1h5m14 0h5m-24 1h5m14 0h5m-24 1h5m14 0h5m-24 1h5m14 0h5m-24 1h5m14 0h5m-24 1h5m14 0h5m-24 1h5m14 0h5m-24 1h5m14 0h5m-24 1h5m14 0h5m-24 1h5m14 0h5m-24 1h5m14 0h5m-24 1h5m14 0h5m-24 1h5m14 0h5m-24 1h5m14 0h5m-24 1h5m14 0h5m-24 1h5m14 0h5m-24 1h5m14 0h5m-24 1h5m14 0h5m-24 1h5m14 0h5m-24 1h5m14 0h5m-24 1h5m14 0h5m-24 1h5m14 0h5m-24 1h5m14 0h5m-24 1h5m14 0h5m-24 1h5m14 0h5m-24 1h5m14 0h5m-24 1h5m14 0h4m-23 1h5m14 0h5m-24 1h5m14 0h5m-24 1h5m14 0h5m-24 1h5m14 0h5m-24 1h5m14 0h5m-24 1h5m15 0h4m-24 1h5m14 0h5m-5 1h5m-5 1h5m-5 1h5m-5 1h5m-5 1h5m-5 1h5m-5 1h5m-5 1h5m-5 1h6m-6 1h6m-6 1h6m-6 1h6m-5 1h5m-5 1h5m-5 1h5m-5 1h5m-5 1h5m-5 1h5m-15 8h2m6 0h10m-36 1h2m16 0h2m4 0h12m-36 1h2m16 0h2m3 0h4m-27 1h3m15 0h2m3 0h2m-24 1h2m14 0h3m3 0h2m-24 1h2m14 0h2m4 0h2m-24 1h3m13 0h2m4 0h2m-23 1h2m13 0h2m4 0h2m-23 1h2m5 0h2m6 0h2m4 0h2m-23 1h2m5 0h3m4 0h3m4 0h2m-23 1h3m3 0h5m3 0h2m5 0h2m-22 1h2m2 0h1m1 0h1m1 0h2m3 0h2m5 0h2m-22 1h2m2 0h2m2 0h3m1 0h3m5 0h2m-22 1h6m3 0h1m2 0h2m6 0h3m-22 1h4m4 0h5m7 0h3m-23 1h4m5 0h4m8 0h5m-25 1h2m7 0h2m10 0h13m-10 1h10"/>
  <path stroke="#ffffa9" d="M46 7h5m-5 1h5m-5 1h5m-5 1h5m-5 1h5m-10 1h5m5 0h5m-15 1h5m5 0h5m-15 1h5m5 0h5m-15 1h5m5 0h5m-15 1h5m5 0h5m-10 1h5m-5 1h5m-5 1h5m-5 1h5m-5 1h5m6 30h5m-5 1h5m-5 1h5m-5 1h5m-5 1h5m-37 47h5m-5 1h5m-5 1h5m-5 1h5m-5 1h5m-10 1h5m5 0h5m-15 1h5m5 0h5m-15 1h5m5 0h5m-15 1h5m5 0h5m-15 1h5m5 0h5m-10 2h5m-5 1h5m-5 1h5m-5 1h5m-5 1h5"/>
  <path stroke="#58455a" d="M240 7h1M80 27h1m136 1h1m-118 5h1m132 21h1M83 59h1m117 7h1m37 7h1m-25 1h1m31 46h1m-7 3h1m-217 8h1m22 1h1m192 8h1m5 24h1m2 0h1M47 175h1m8 5h1m-29 11h1m-27 2h1m7 4h1m43 11h1m165 4h1m-154 5h1m149 9h1m9 0h1m-184 2h1m-21 9h1m34 4h1m-47 3h1m214 4h1"/>
  <path stroke="#5c4c78" d="M16 8h1m27 1h1m4 15h1m7 22h1M45 56h1m0 28h1m-20 8h1m17 2h1m-24 20h1"/>
  <path stroke="#fff" d="M116 9h10m-10 1h10m-10 1h10m-10 1h10m-10 1h10m-10 1h10m-10 1h10m-10 1h10m-10 1h10m-10 1h10m-10 31h10m-10 1h10m-10 1h10m-10 1h10m-10 1h10m-10 1h10m-10 1h10m-10 1h10m-10 1h10m-10 1h10m-52 59h1m-1 1h11m-11 1h11m-11 1h11m-11 1h10m85 0h10m-105 1h10m85 0h10m-105 1h10m85 0h6m1 0h3m-105 1h10m85 0h10m-105 1h10m85 0h10m-105 1h10m5 0h5m5 0h5m45 0h5m5 0h5m5 0h10m-105 1h10m5 0h5m5 0h5m45 0h5m5 0h5m5 0h10m-105 1h10m5 0h5m5 0h5m45 0h5m5 0h5m5 0h10m-105 1h10m5 0h5m5 0h5m45 0h5m5 0h5m5 0h10m-105 1h1m1 0h8m5 0h5m5 0h5m45 0h5m5 0h5m5 0h10m-105 1h10m15 0h5m45 0h5m15 0h10m-105 1h10m15 0h5m45 0h5m15 0h10m-105 1h10m15 0h5m45 0h5m15 0h10m-105 1h10m15 0h5m45 0h5m15 0h10m-105 1h10m15 0h5m45 0h5m15 0h10m-105 1h40m26 0h39m-105 1h40m26 0h39m-105 1h40m26 0h39m-105 1h40m26 0h39m-105 1h6m1 0h22m1 0h1m35 0h39m-105 1h31m40 0h34m-105 1h31m40 0h34m-105 1h31m40 0h34m-105 1h31m40 0h33m-104 1h31m40 0h34"/>
  <path stroke="#fe1413" d="M126 9h10m-10 1h10m-10 1h5m1 0h4m-10 1h10m-10 1h10m-10 1h10m-10 1h10m-10 1h10m-10 1h10m-10 1h10m-20 1h10m-10 1h10m-10 1h10m-10 1h10m-10 1h10m-10 1h10m-10 1h10m-10 1h10m-10 1h10m-10 1h10"/>
  <path stroke="#9c0c49" d="M136 9h5m-5 1h5m-5 1h5m-5 1h5m-5 1h5m-5 1h5m-5 1h5m-5 1h2m1 0h2m-5 1h5m-5 1h5m-5 1h5m-5 1h5m-5 1h5m-5 1h5m-5 1h5m-5 1h5m-5 1h5m-5 1h5m-5 1h5m-5 1h5"/>
  <path stroke="#59455b" d="M84 10h1m96 9h1m44 6h1m15 0h1m-35 14h1M80 41h1m18 7h1m97 3h1M80 54h1m173 10h1m-11 9h1m-33 5h1M4 130h1m0 5h1m18 2h1m207 10h1m-214 2h1m20 6h1m6 4h1m-17 9h1m-10 7h1m203 6h1M54 199h1m191 4h1m6 39h1"/>
  <path stroke="#ff1413" d="M131 11h1"/>
  <path stroke="#5d4d78" d="M24 12h1m16 8h1m17 16h1m-21 6h1m30 17h1M57 81h1m-4 8h1"/>
  <path stroke="#fea250" d="M168 13h1m-9 41h1"/>
  <path stroke="#feffa7" d="M11 14h1m10 14h1m13 11h1"/>
  <path stroke="#58445b" d="M224 15h1M92 17h1m159 13h1M82 40h1m-2 1h1m146 27h1M11 149h1m37 5h1m-31 1h1m5 8h1m15 52h1m-14 3h1m214 6h1m-217 8h1m199 15h1M6 250h1"/>
  <path stroke="#4c3a6f" d="M33 16h1m-1 97h1"/>
  <path stroke="#9c0c48" d="M138 16h1"/>
  <path stroke="#b80e55" d="M126 19h10m-10 1h10m-10 1h10m-10 1h10m-10 1h10m-10 1h10m-10 1h10m-10 1h10m-10 1h10m-10 1h7m1 0h2"/>
  <path stroke="#fee450" d="M146 19h1m8 25h1m-23 30h1m3 3h1m6 150h1m0 5h1"/>
  <path stroke="#ffffcb" d="M0 21h11M0 22h11M0 23h11M0 24h11M0 25h11M0 26h11M0 27h11M0 28h11M0 29h11M0 30h11M0 31h11M0 32h11M0 33h11M0 34h11M0 35h11M0 36h11M0 37h27M0 38h27M0 39h27M0 40h27M0 41h27M0 42h27M0 43h27M0 44h27M0 45h27M0 46h13m1 0h13M0 47h27M0 48h27M0 49h27M0 50h27M0 51h27M0 52h27M0 53h27M0 54h27M0 55h27M0 56h27M0 57h27M0 58h27M0 59h27M0 60h27M0 61h27M0 62h27M0 63h27M0 64h27M0 65h27M0 66h27M0 67h27M0 68h27M0 69h27M0 70h9m1 0h17M0 71h27M0 72h27M0 73h27M0 74h27M0 75h11M0 76h11M0 77h11M0 78h11M0 79h11M0 80h11M0 81h11M0 82h11M0 83h11M0 84h11M0 85h11M0 86h11M0 87h11M0 88h11M0 89h11M0 90h11"/>
  <path stroke="#000100" d="M77 22h1M21 33h1m41 47h1m97 2h1m26 4h1m4 97h1m-115 3h1m120 55h1"/>
  <path stroke="#6b5367" d="M206 22h1M19 239h1"/>
  <path stroke="#58445a" d="M207 24h1"/>
  <path stroke="#b90e55" d="M133 28h1"/>
  <path stroke="#000001" d="M107 29h1m-1 8h1M29 75h1m0 4h1m134 1h1m53 0h1M3 125h1m83 7h1m-34 16h1m111 33h1m-88 4h1m-2 3h1m130 8h1m-7 39h1"/>
  <path stroke="#7a0724" d="M116 29h16m1 0h8m-25 1h25m-25 1h25m-25 1h25m-25 1h15m1 0h9"/>
  <path stroke="#7a0624" d="M132 29h1"/>
  <path stroke="#7b0724" d="M131 33h1"/>
  <path stroke="#ffa350" d="M173 36h1"/>
  <path stroke="#fee551" d="M142 37h1m-34 3h1m13 39h1m-6 147h1m-2 13h1m-5 2h1"/>
  <path stroke="#ffe451" d="M140 38h1m-24 6h1m39 1h1m1 4h1m-23 25h1m-24 3h1m27 146h1"/>
  <path stroke="#feffcb" d="M13 46h1M9 70h1"/>
  <path stroke="#6a5366" d="M218 47h1M37 193h1m-5 6h1"/>
  <path stroke="#14ccff" d="M126 49h10m-10 1h10m-10 1h10m-10 1h10m-10 1h10m-10 1h10m-10 1h10m-10 1h10m-10 1h10m-10 1h10m-20 1h10m-10 1h7m1 0h2m-10 1h10m-10 1h10m-10 1h10m-10 1h10m-10 1h10m-10 1h10m-10 1h10m-10 1h10"/>
  <path stroke="#0c359e" d="M136 49h5m-5 1h5m-5 1h5m-5 1h5m-5 1h5m-5 1h5m-5 1h5m-5 1h5m-5 1h5m-5 1h5m-5 1h5m-5 1h5m-5 1h5m-5 1h5m-5 1h5m-5 1h5m-5 1h5m-5 1h5m-5 1h5m-5 1h5"/>
  <path stroke="#ffffa6" d="M37 57h1"/>
  <path stroke="#010000" d="M178 57h1m-54 25h1m73 1h1m-41 1h1m61 39h1m-7 57h1m-7 23h1M72 220h1m126 19h1"/>
  <path stroke="#1459ff" d="M126 59h10m-10 1h10m-10 1h10m-10 1h10m-10 1h5m1 0h4m-10 1h6m1 0h3m-10 1h10m-10 1h10m-10 1h10m-10 1h10"/>
  <path stroke="#14ccfe" d="M123 60h1"/>
  <path stroke="#1559ff" d="M131 63h1"/>
  <path stroke="#1458ff" d="M132 64h1"/>
  <path stroke="#06246a" d="M116 69h25m-25 1h25m-25 1h25m-25 1h2m1 0h22m-25 1h25"/>
  <path stroke="#4c3b6e" d="M51 70h1"/>
  <path stroke="#06246b" d="M118 72h1"/>
  <path stroke="#c19b76" d="M60 90h47m1 0h88M60 91h136M60 92h107m1 0h1m1 0h26M60 93h136M60 94h34m1 0h42m1 0h58M87 95h80m-80 1h80m-80 1h80m-80 1h17m1 0h62m-80 1h80m-80 1h80m-79 1h79m-79 1h79m-79 1h79m-79 1h24m1 0h54m-79 1h79m-79 1h22m1 0h56m-79 1h60m1 0h18m-77 1h77m-77 1h77m-77 1h77m-107 1h5m30 0h35m1 0h25m35 0h5m-136 1h5m30 0h61m35 0h5m-136 1h5m30 0h61m35 0h5m-136 1h5m30 0h61m35 0h5m-136 1h5m30 0h61m35 0h5m-136 1h5m39 0h44m36 0h12m-136 1h14m30 0h44m36 0h12m-136 1h14m30 0h36m1 0h7m36 0h12m-136 1h14m30 0h44m36 0h12m-136 1h14m30 0h44m37 0h11m-136 1h14m30 0h44m31 0h17m-136 1h14m30 0h44m31 0h17m-136 1h14m30 0h44m31 0h17m-136 1h14m30 0h44m31 0h17m-136 1h14m30 0h44m31 0h17m-136 1h14m30 0h45m30 0h17m-136 1h14m30 0h45m30 0h17m-136 1h14m30 0h45m30 0h17m-136 1h14m30 0h45m30 0h17m-136 1h14m30 0h45m30 0h17m-136 1h14m30 0h9m1 0h35m30 0h17m-136 1h14m30 0h45m30 0h17m-136 1h14m30 0h43m1 0h1m30 0h14m1 0h2m-136 1h14m30 0h45m30 0h17m-136 1h14m30 0h45m30 0h17m-136 1h14m40 0h26m39 0h17m-136 1h14m40 0h26m39 0h17m-136 1h14m40 0h26m39 0h17m-136 1h14m40 0h26m39 0h17m-136 1h14m41 0h25m39 0h17m-136 1h14m105 0h17m-136 1h6m1 0h7m105 0h2m1 0h14m-136 1h14m105 0h17m-136 1h14m105 0h17m-136 1h14m105 0h17m-136 1h26m1 0h18m40 0h36m1 0h14m-136 1h38m1 0h6m40 0h51m-136 1h45m40 0h51m-136 1h45m40 0h51m-136 1h45m40 0h51m-136 1h45m40 0h17m1 0h33m-136 1h45m40 0h51m-136 1h45m40 0h51m-136 1h45m40 0h51m-136 1h45m40 0h51m-136 1h45m40 0h1m1 0h49m-136 1h45m40 0h18m1 0h5m1 0h26m-136 1h45m40 0h51m-136 1h45m40 0h51m-136 1h45m40 0h51m-136 1h45m40 0h51m-136 1h10m1 0h34m40 0h51m-136 1h45m40 0h51m-136 1h45m40 0h51m-136 1h6m1 0h1m1 0h36m40 0h51m-136 1h45m40 0h40m1 0h10m-136 1h45m40 0h51m-136 1h32m1 0h12m40 0h51m-136 1h2m1 0h42m40 0h51m-136 1h45m40 0h51m-136 1h45m40 0h51m-136 1h45m40 0h51m-136 1h45m40 0h51m-136 1h24m1 0h20m40 0h51m-136 1h45m40 0h51m-136 1h45m40 0h51m-136 1h45m40 0h51m-136 1h45m40 0h51m-136 1h45m40 0h51m-24 55h15m-99 1h13m71 0h15m-99 1h13m71 0h15m-99 1h13m71 0h15m-99 1h13m71 0h15m-99 1h13m71 0h15m-99 1h13m71 0h15m-99 1h13m71 0h15m-99 1h13m71 0h15m-99 1h13m71 0h15m-99 1h13m71 0h15m-99 1h13m71 0h15m-99 1h13m71 0h15m-99 1h6m1 0h6m71 0h14m-98 1h13m71 0h15m-99 1h13m71 0h15m-99 1h13m71 0h15m-99 1h13m71 0h15m-99 1h13m71 0h15m-99 1h13m71 0h15m-99 1h13m71 0h15m-99 1h13m71 0h15"/>
  <path stroke="#c19a76" d="M107 90h1m-14 4h1m42 0h1m-26 10h1m17 7h1m9 7h1m-28 13h1m33 2h1m33 9h1m-1 4h1m-36 10h1m22 1h1m-104 8h1m1 0h1m25 82h1"/>
  <path stroke="#ac8967" d="M196 90h15m1 0h8m-24 1h24m-24 1h24m-24 1h24m-24 1h24m-24 1h24m-24 1h2m1 0h21m-24 1h24m-24 1h24m-24 1h24m-24 1h20m1 0h3m-24 1h24m-24 1h24m-24 1h7m1 0h16m-24 1h1m1 0h22m-24 1h24m-24 1h24m-24 1h24m-24 1h24m-24 1h14m1 0h9m-24 1h24m-24 1h24m-24 1h24m-24 1h24m-24 1h24m-24 1h24m-24 1h24m-24 1h24m-24 1h24m-24 1h24m-24 1h24m-24 1h24m-24 1h24m-24 1h24m-24 1h24m-24 1h24m-24 1h12m1 0h11m-24 1h24m-24 1h24m-24 1h24m-24 1h24m-24 1h9m1 0h14m-24 1h24m-24 1h24m-24 1h24m-24 1h24m-24 1h24m-24 1h5m1 0h16m1 0h1m-24 1h24m-24 1h24m-24 1h24m-85 1h10m51 0h24m-85 1h10m51 0h24m-85 1h10m51 0h24m-85 1h10m51 0h24m-85 1h10m51 0h24m-85 1h10m51 0h24m-85 1h10m51 0h24m-85 1h10m51 0h24m-85 1h10m51 0h24m-85 1h10m51 0h24m-85 1h10m51 0h24m-85 1h10m51 0h24m-85 1h10m51 0h24m-85 1h10m51 0h24m-85 1h10m51 0h24m-85 1h10m51 0h24m-85 1h10m51 0h24m-85 1h10m51 0h24m-85 1h10m51 0h24m-85 1h10m51 0h24m-85 1h10m51 0h24m-85 1h10m51 0h24m-85 1h10m51 0h24m-85 1h10m51 0h24m-85 1h10m51 0h24m-85 1h10m51 0h24m-85 1h8m1 0h1m51 0h24m-85 1h10m51 0h24m-85 1h10m51 0h24m-85 1h10m51 0h24m-85 1h10m51 0h24m-85 1h10m51 0h24m-85 1h10m51 0h24m-85 1h10m51 0h24m-85 1h10m51 0h24m-85 1h10m51 0h24m-85 1h10m51 0h18m1 0h5m-85 1h10m51 0h24m-85 1h10m51 0h24m-85 1h10m-10 1h10m-10 1h10m-10 1h10m-10 1h10m-10 1h10m-10 1h10m-10 1h10m-10 1h10m-10 1h10m-10 1h10m-10 1h10m-10 1h10m-10 1h10m-10 1h10m-10 1h10m-10 1h10m-10 1h10m-10 1h10m-10 1h10m42 35h10m-10 1h10m-10 1h10m-10 1h10m-10 1h10m-10 1h10m-10 1h10m-10 1h10m-10 1h10m-10 1h10m-10 1h10m-10 1h10m-10 1h10m-10 1h10m-10 1h10m-10 1h10m-10 1h10m-10 1h10m-10 1h10m-10 1h10m-10 1h10m-10 1h10"/>
  <path stroke="#ac8867" d="M211 90h1m-7 41h1m-63 36h1"/>
  <path stroke="#c19b77" d="M167 92h1m1 0h1m-66 6h1m57 53h1m0 6h1m-94 5h1m114 4h1m-94 2h1m-9 6h1m101 73h1"/>
  <path stroke="#663931" d="M60 95h27m80 0h29M60 96h27m80 0h29M60 97h27m80 0h29M60 98h27m80 0h29M60 99h2m1 0h24m80 0h29m-136 1h27m80 0h29m-136 1h28m79 0h29m-136 1h28m79 0h29m-136 1h28m79 0h29m-136 1h28m79 0h29m-136 1h28m79 0h29m-136 1h28m79 0h29m-136 1h17m1 0h10m79 0h29m-136 1h30m77 0h29m-136 1h4m1 0h25m77 0h29m-136 1h22m1 0h7m77 0h29m-131 1h30m61 0h35m-126 1h26m1 0h3m61 0h35m-126 1h30m61 0h35m-126 1h9m1 0h20m61 0h2m1 0h32m-126 1h30m61 0h35m-126 1h39m44 0h36m-109 1h29m44 0h25m1 0h10m-99 1h19m44 0h18m1 0h17m-99 1h19m44 0h36m-99 1h19m44 0h9m1 0h24m1 0h1m-90 1h10m44 0h10m-64 1h10m44 0h10m-64 1h10m44 0h10m-64 1h10m44 0h10m-64 1h10m44 0h10"/>
  <path stroke="#ad8967" d="M198 96h1m4 7h1m6 6h1m-3 17h1m-8 11h1m16 0h1m-5 40h1"/>
  <path stroke="#673931" d="M62 99h1m28 13h1m-18 2h1m107 6h1"/>
  <path stroke="#ac8966" d="M216 100h1m-20 4h1"/>
  <path stroke="#c09b76" d="M110 106h1m37 1h1m35 13h1m8 13h1m-128 9h1m19 4h1m11 1h1m-37 22h1"/>
  <path stroke="#663831" d="M77 107h1m4 3h1m75 4h1m7 4h1m-10 2h1"/>
  <path stroke="#663930" d="M64 109h1m108 8h1"/>
  <path stroke="#fffffe" d="M175 123h1m-96 17h1m22 0h1"/>
  <path stroke="#fffeff" d="M75 130h1"/>
  <path stroke="#eaba8c" d="M105 140h10m-10 1h30m-30 1h30m-30 1h21m1 0h8m-30 1h30m-30 1h25m1 0h4m-30 1h30m-30 1h30m-30 1h30m-30 1h30m-30 1h30m-30 1h30m-30 1h30m-30 1h30m-30 1h30m-30 1h30m-30 1h30m-30 1h30m-30 1h30m-30 1h30m-30 1h22m1 0h7m-30 1h30m-30 1h30m-30 1h30m-30 1h30m-30 1h30m-30 1h30m-30 1h30m-30 1h30m-30 1h30m-30 1h30m-30 1h30m-30 1h30m-30 1h15m1 0h14m-30 1h30m-30 1h30m-30 1h30m-30 1h30m-30 1h3m1 0h26m-30 1h30m-30 1h30m-30 1h30m-30 1h13m1 0h16m-30 1h30m-30 1h30m-30 1h30m-30 1h30m-30 1h30m-30 1h30m-30 1h30m-30 1h30m-30 1h30m-30 1h30m-30 1h6m1 0h23m-30 1h30m-30 1h30m-30 1h30m-30 1h30m-30 1h15m1 0h3m1 0h10m-30 1h30"/>
  <path stroke="#eabb8c" d="M126 143h1m3 2h1m-23 33h1"/>
  <path stroke="#feffff" d="M178 144h1"/>
  <path stroke="#ebba8c" d="M127 160h1m-10 22h1m-8 11h1"/>
  <path stroke="#eaba8d" d="M120 173h1m-1 25h1m3 0h1"/>
  <path stroke="#374bec" d="M78 190h23m68 0h19m-110 1h23m68 0h19m-110 1h23m68 0h19m-110 1h23m68 0h19m-110 1h23m68 0h19m-110 1h23m68 0h19m-110 1h23m68 0h19m-110 1h23m68 0h19m-110 1h23m68 0h19m-110 1h12m1 0h10m68 0h19m-110 1h11m1 0h11m68 0h19m-110 1h23m68 0h8m1 0h10m-110 1h23m68 0h19m-110 1h23m68 0h19m-110 1h23m68 0h19m-110 1h23m68 0h19m-110 1h23m68 0h19m-110 1h23m68 0h19m-110 1h23m68 0h19m-110 1h23m68 0h19m-110 1h23m68 0h19m-110 1h14m1 0h8m68 0h19m-110 1h23m68 0h19m-110 1h23m68 0h19m-110 1h23m68 0h11m1 0h7m-110 1h23m68 0h19m-110 1h23m68 0h19m-110 1h23m68 0h19m-110 1h23m68 0h19m-110 1h23m68 0h19m-110 1h23m68 0h19m-110 1h23m68 0h19m-110 1h23m68 0h19m-110 1h23m68 0h19m-110 1h23m68 0h19m-110 1h23m68 0h19m-110 1h23m68 0h19m-110 1h23m68 0h19m-110 1h23m68 0h19m-110 1h23m68 0h19m-110 1h23m68 0h19m-110 1h23"/>
  <path stroke="#39abff" d="M101 190h4m46 0h18m-68 1h4m46 0h18m-68 1h4m46 0h18m-68 1h4m46 0h18m-68 1h4m46 0h18m-68 1h4m46 0h18m-68 1h4m46 0h18m-68 1h4m46 0h18m-68 1h4m46 0h18m-68 1h4m46 0h18m-68 1h9m41 0h18m-68 1h9m41 0h18m-68 1h9m41 0h18m-68 1h9m41 0h18m-68 1h9m41 0h18m-68 1h9m41 0h18m-68 1h9m41 0h18m-68 1h9m41 0h18m-68 1h9m41 0h18m-68 1h9m41 0h18m-68 1h9m41 0h18m-68 1h9m41 0h18m-68 1h9m41 0h18m-68 1h9m41 0h18m-68 1h9m41 0h18m-68 1h9m41 0h18m-68 1h9m41 0h3m1 0h14m-68 1h9m41 0h18m-68 1h9m41 0h18m-68 1h9m41 0h13m1 0h4m-68 1h9m41 0h14m1 0h3m-68 1h9m41 0h18m-68 1h9m41 0h18m-68 1h9m41 0h18m-68 1h9m41 0h18m-68 1h9m41 0h18m-68 1h9m41 0h18m-68 1h9m41 0h4m1 0h13m-68 1h9m41 0h18m-68 1h9m41 0h18m-68 1h9m41 0h18m-68 1h9m41 0h18m-68 1h9m41 0h18m-68 1h9m41 0h18m-68 1h9m41 0h21m-71 1h9m41 0h21m-71 1h9m41 0h21m-71 1h9m41 0h21m-71 1h9m41 0h21m-71 1h9m41 0h21m-71 1h7m46 0h18m-71 1h7m46 0h18m-71 1h7m46 0h18m-71 1h7m46 0h18m-71 1h7m46 0h18m-71 1h7m46 0h18m-71 1h7m46 0h18m-9 1h9m-9 1h9m-9 1h9m-9 1h9m-9 1h9m-9 1h9m-9 1h9m-9 1h9m-9 1h9"/>
  <path stroke="#2a38b3" d="M188 190h17m-17 1h17m-17 1h17m-17 1h17m-17 1h17m-17 1h17m-17 1h17m-17 1h11m1 0h5m-17 1h17m-17 1h3m1 0h13m-17 1h17m-17 1h17m-17 1h17m-17 1h17m-17 1h17m-17 1h17m-17 1h17m-17 1h17m-17 1h17m-17 1h17m-17 1h17m-17 1h17m-17 1h17m-17 1h17m-17 1h17m-17 1h17m-17 1h17m-17 1h17m-17 1h17m-17 1h17m-17 1h17m-17 1h17m-17 1h17m-17 1h17m-17 1h17m-17 1h17m-17 1h17m-17 1h17m-17 1h17m-17 1h17m-17 1h17"/>
  <path stroke="#2a38b2" d="M199 197h1m-9 2h1"/>
  <path stroke="#374bed" d="M90 199h1m-2 1h1m87 1h1m-86 10h1m87 3h1"/>
  <path stroke="#2d2e30" d="M120 200h21m-21 1h21m-20 1h20m-21 1h21m-21 1h21m-21 1h21m-21 1h21m-21 1h21m-21 1h21m-21 1h18m1 0h2m-21 1h3m1 0h17m-21 1h21m-21 1h21m-21 1h21m-21 1h21m-21 1h21m-21 1h21m-21 1h21m-21 1h21m-21 1h21m-21 1h21m-21 1h21m-21 1h21m-21 1h21m-21 1h21m-21 1h21m-21 1h21m-21 1h21m-21 1h21m-21 1h21m-21 1h21m-21 1h21m-21 1h21m-21 1h21m-21 1h21m-21 1h21m-21 1h21m-21 1h21m-21 1h21m-21 1h21m-23 1h3m1 0h22m-26 1h26m-26 1h26m-26 1h26m-26 1h26m-26 1h26m-26 1h17m1 0h8m-26 1h19m1 0h6m-26 1h26m-26 1h8m1 0h17m-33 1h42m-42 1h42m-42 1h3m1 0h38m-42 1h42m-42 1h42m-42 1h42"/>
  <path stroke="#2d2e31" d="M120 202h1m2 8h1m-3 30h1m13 6h1"/>
  <path stroke="#2c2e30" d="M138 209h1m-2 38h1m-12 2h1m-13 3h1"/>
  <path stroke="#39aaff" d="M154 216h1"/>
  <path stroke="#39abfe" d="M164 219h1m0 1h1"/>
  <path stroke="#38abff" d="M155 227h1"/>
  <path stroke="#ffa252" d="M188 231h17m-17 1h17m-17 1h17"/>
  <path stroke="#6a5267" d="M14 237h1"/>
</svg>
